HIERARCHY
ROOT Hips
{
    OFFSET   0.000000   0.000000   0.000000
    CHANNELS 6 Xposition Yposition Zposition Zrotation Xrotation Yrotation
    JOINT Chest
    {
        OFFSET   0.000000   8.007230   0.000000
        CHANNELS 3 Zrotation Xrotation Yrotation
        JOINT Chest2
        {
            OFFSET   0.000000  22.077100   0.000000
            CHANNELS 3 Zrotation Xrotation Yrotation
            JOINT Neck
            {
                OFFSET   0.000000  23.254800  -0.000021
                CHANNELS 3 Zrotation Xrotation Yrotation
                JOINT Head
                {
                    OFFSET   0.000000  14.370000   1.956610
                    CHANNELS 3 Zrotation Xrotation Yrotation
                    End Site
                    {
                        OFFSET   0.000000  19.566000   0.000000
                    }
                }
            }
            JOINT LeftCollar
            {
                OFFSET   3.911900  19.017000  -0.467063
                CHANNELS 3 Zrotation Xrotation Yrotation
                JOINT LeftShoulder
                {
                    OFFSET  10.383700   0.000000   0.000000
                    CHANNELS 3 Zrotation Xrotation Yrotation
                    JOINT LeftElbow
                    {
                        OFFSET  26.662100   0.001529   0.000325
                        CHANNELS 3 Zrotation Xrotation Yrotation
                        JOINT LeftWrist
                        {
                            OFFSET  28.869000  -0.000011  -0.000096
                            CHANNELS 3 Zrotation Xrotation Yrotation
                            JOINT LeftFinger0
                            {
                                OFFSET   2.044650  -2.323460   3.252850
                                CHANNELS 3 Zrotation Xrotation Yrotation
                                JOINT LeftFinger01
                                {
                                    OFFSET   3.088130   0.000000   0.000000
                                    CHANNELS 3 Zrotation Xrotation Yrotation
                                    JOINT LeftFinger02
                                    {
                                        OFFSET   2.639460   0.000000   0.000000
                                        CHANNELS 3 Zrotation Xrotation Yrotation
                                        End Site
                                        {
                                            OFFSET   2.582190   0.000000   0.000000
                                        }
                                    }
                                }
                            }
                            JOINT LeftFinger1
                            {
                                OFFSET   8.364480   0.000000   3.252850
                                CHANNELS 3 Zrotation Xrotation Yrotation
                                JOINT LeftFinger11
                                {
                                    OFFSET   4.646930   0.000000   0.000000
                                    CHANNELS 3 Zrotation Xrotation Yrotation
                                    JOINT LeftFinger12
                                    {
                                        OFFSET   2.323460   0.000000   0.000000
                                        CHANNELS 3 Zrotation Xrotation Yrotation
                                        End Site
                                        {
                                            OFFSET   2.273050   0.000000   0.000000
                                        }
                                    }
                                }
                            }
                            JOINT LeftFinger2
                            {
                                OFFSET   8.364480   0.000016   1.078090
                                CHANNELS 3 Zrotation Xrotation Yrotation
                                JOINT LeftFinger21
                                {
                                    OFFSET   5.111620   0.000000   0.000000
                                    CHANNELS 3 Zrotation Xrotation Yrotation
                                    JOINT LeftFinger22
                                    {
                                        OFFSET   2.788160   0.000017   0.000000
                                        CHANNELS 3 Zrotation Xrotation Yrotation
                                        End Site
                                        {
                                            OFFSET   2.727660   0.000000   0.000000
                                        }
                                    }
                                }
                            }
                            JOINT LeftFinger3
                            {
                                OFFSET   7.899780   0.000015  -1.078090
                                CHANNELS 3 Zrotation Xrotation Yrotation
                                JOINT LeftFinger31
                                {
                                    OFFSET   4.646920   0.000000   0.000000
                                    CHANNELS 3 Zrotation Xrotation Yrotation
                                    JOINT LeftFinger32
                                    {
                                        OFFSET   2.323470   0.000000   0.000000
                                        CHANNELS 3 Zrotation Xrotation Yrotation
                                        End Site
                                        {
                                            OFFSET   2.273050   0.000000   0.000000
                                        }
                                    }
                                }
                            }
                            JOINT LeftFinger4
                            {
                                OFFSET   7.435090   0.000000  -3.252850
                                CHANNELS 3 Zrotation Xrotation Yrotation
                                JOINT LeftFinger41
                                {
                                    OFFSET   3.717550   0.000000   0.000000
                                    CHANNELS 3 Zrotation Xrotation Yrotation
                                    JOINT LeftFinger42
                                    {
                                        OFFSET   1.858760   0.000000   0.000000
                                        CHANNELS 3 Zrotation Xrotation Yrotation
                                        End Site
                                        {
                                            OFFSET   1.818440   0.000000   0.000000
                                        }
                                    }
                                }
                            }
                        }
                    }
                }
            }
            JOINT RightCollar
            {
                OFFSET  -3.911900  19.017000  -0.467062
                CHANNELS 3 Zrotation Xrotation Yrotation
                JOINT RightShoulder
                {
                    OFFSET -10.383700   0.000015   0.000000
                    CHANNELS 3 Zrotation Xrotation Yrotation
                    JOINT RightElbow
                    {
                        OFFSET -26.662100   0.001341   0.000385
                        CHANNELS 3 Zrotation Xrotation Yrotation
                        JOINT RightWrist
                        {
                            OFFSET -28.869000   0.000025  -0.000080
                            CHANNELS 3 Zrotation Xrotation Yrotation
                            JOINT RightFinger0
                            {
                                OFFSET  -2.044650  -2.323490   3.252850
                                CHANNELS 3 Zrotation Xrotation Yrotation
                                JOINT RightFinger01
                                {
                                    OFFSET  -3.088130   0.000000   0.000000
                                    CHANNELS 3 Zrotation Xrotation Yrotation
                                    JOINT RightFinger02
                                    {
                                        OFFSET  -2.639460   0.000000   0.000000
                                        CHANNELS 3 Zrotation Xrotation Yrotation
                                        End Site
                                        {
                                            OFFSET  -2.582190   0.000000   0.000000
                                        }
                                    }
                                }
                            }
                            JOINT RightFinger1
                            {
                                OFFSET  -8.364480   0.000000   3.252850
                                CHANNELS 3 Zrotation Xrotation Yrotation
                                JOINT RightFinger11
                                {
                                    OFFSET  -4.646930   0.000000   0.000000
                                    CHANNELS 3 Zrotation Xrotation Yrotation
                                    JOINT RightFinger12
                                    {
                                        OFFSET  -2.323470   0.000000   0.000000
                                        CHANNELS 3 Zrotation Xrotation Yrotation
                                        End Site
                                        {
                                            OFFSET  -2.273050   0.000000   0.000000
                                        }
                                    }
                                }
                            }
                            JOINT RightFinger2
                            {
                                OFFSET  -8.364480   0.000000   1.078090
                                CHANNELS 3 Zrotation Xrotation Yrotation
                                JOINT RightFinger21
                                {
                                    OFFSET  -5.111610   0.000000   0.000000
                                    CHANNELS 3 Zrotation Xrotation Yrotation
                                    JOINT RightFinger22
                                    {
                                        OFFSET  -2.788160   0.000000   0.000000
                                        CHANNELS 3 Zrotation Xrotation Yrotation
                                        End Site
                                        {
                                            OFFSET  -2.727660   0.000000   0.000000
                                        }
                                    }
                                }
                            }
                            JOINT RightFinger3
                            {
                                OFFSET  -7.899780   0.000000  -1.078090
                                CHANNELS 3 Zrotation Xrotation Yrotation
                                JOINT RightFinger31
                                {
                                    OFFSET  -4.646920   0.000000   0.000000
                                    CHANNELS 3 Zrotation Xrotation Yrotation
                                    JOINT RightFinger32
                                    {
                                        OFFSET  -2.323470   0.000000   0.000000
                                        CHANNELS 3 Zrotation Xrotation Yrotation
                                        End Site
                                        {
                                            OFFSET  -2.273050   0.000000   0.000000
                                        }
                                    }
                                }
                            }
                            JOINT RightFinger4
                            {
                                OFFSET  -7.435090   0.000000  -3.252850
                                CHANNELS 3 Zrotation Xrotation Yrotation
                                JOINT RightFinger41
                                {
                                    OFFSET  -3.717550   0.000000   0.000000
                                    CHANNELS 3 Zrotation Xrotation Yrotation
                                    JOINT RightFinger42
                                    {
                                        OFFSET  -1.858770   0.000000   0.000000
                                        CHANNELS 3 Zrotation Xrotation Yrotation
                                        End Site
                                        {
                                            OFFSET  -1.818440   0.000000   0.000000
                                        }
                                    }
                                }
                            }
                        }
                    }
                }
            }
        }
    }
    JOINT LeftHip
    {
        OFFSET   9.783010   0.000000   0.000000
        CHANNELS 3 Zrotation Xrotation Yrotation
        JOINT LeftKnee
        {
            OFFSET   0.000070 -41.789100   0.000028
            CHANNELS 3 Zrotation Xrotation Yrotation
            JOINT LeftAnkle
            {
                OFFSET   0.000087 -41.133200  -0.000100
                CHANNELS 3 Zrotation Xrotation Yrotation
                JOINT LeftToe
                {
                    OFFSET   0.000000  -6.358960  14.674500
                    CHANNELS 3 Zrotation Xrotation Yrotation
                    End Site
                    {
                        OFFSET   0.000000   0.000000   3.913200
                    }
                }
            }
        }
    }
    JOINT RightHip
    {
        OFFSET  -9.783020   0.000000   0.000000
        CHANNELS 3 Zrotation Xrotation Yrotation
        JOINT RightKnee
        {
            OFFSET   0.000044 -41.789100  -0.000870
            CHANNELS 3 Zrotation Xrotation Yrotation
            JOINT RightAnkle
            {
                OFFSET  -0.000090 -41.133200  -0.000245
                CHANNELS 3 Zrotation Xrotation Yrotation
                JOINT RightToe
                {
                    OFFSET   0.000000  -6.358960  14.674500
                    CHANNELS 3 Zrotation Xrotation Yrotation
                    End Site
                    {
                        OFFSET   0.000000   0.000000   3.913200
                    }
                }
            }
        }
    }
}
MOTION
Frames: 4
Frame Time:   0.016667
  2.211270  89.551400  -0.502594  -1.767330 -19.478300   7.149170  -0.293764  12.421500   5.694160  -1.954810  24.746800  11.888900   3.105220  -2.160200   0.115779   5.121470  -4.342110 -14.217800  -5.156860  -5.440380  -3.961170 -66.537500  21.059800 -11.630800  -1.223630  -6.235740 -16.157400  19.254500 -12.032600   6.093490  40.851500  31.885700 -62.056600 -28.048600  -0.000123   0.000000  -9.024310  -0.000081  -0.000198 -33.245500   7.716230 -11.576100 -27.841800  -0.002462  -0.003689 -19.489200   0.000908   0.000318 -28.743700   1.175300  -2.141700 -40.807300  -0.001055   0.003134 -27.177700  -0.004702   0.008242 -28.597900   1.169770  -2.144730 -37.683800  -0.000762   0.002645 -25.097500  -0.004117   0.006390 -33.631400   0.545321  -0.820794 -50.452900  -0.001486   0.004494 -33.601600   0.000832   0.000212   7.659210  -3.222080   8.247980  29.922000  -6.379570  56.222100 -33.449300   3.303330  32.042500 -72.075500  26.599100  30.364000 -49.944400  38.957100  78.999000   7.838490  -0.001097  -0.005209  -1.080750  -0.000140  -0.002443  -9.801120   1.228610  -7.074730  -0.000000   0.000066   0.001274  -0.000000   0.000000   0.000573  -5.487770   0.926076  -9.547910   0.000000  -0.001355   0.002580   0.000000  -0.000974   0.001673 -18.542700   3.076470  -9.089970  -0.000000   0.001814   0.004524  -0.000000   0.001270   0.002963   1.812410  -0.306126  -9.587510   2.757090   0.002057   0.000557   1.836210   0.001604   0.000229   3.451670  20.723900   3.948180   1.162790   0.002011   2.801780  -1.882450  -2.638680  -1.211520  -0.000000   0.000000   0.000000   4.297030  21.070800  -8.057460  -1.498730   2.639070 -14.228100   1.818110  -4.901550   0.244832  -0.000000   0.000000   0.000000
  2.191720  89.551600  -0.488752  -1.789910 -19.439500   7.121330  -0.286396  12.390400   5.691680  -1.935600  24.685700  11.879500   3.099770  -2.147470   0.115526   5.112540  -4.316690 -14.247700  -5.167200  -5.421070  -3.968260 -66.596500  21.121700 -11.649800  -1.178310  -6.078060 -16.541800  19.290100 -12.014300   6.028780  40.911700  31.944400 -62.105800 -28.008000  -0.000154  -0.000000  -9.004000  -0.000094  -0.000252 -33.297400   7.718370 -11.566100 -27.883500  -0.002514  -0.003707 -19.518400   0.000905   0.000347 -28.745000   1.167590  -2.127560 -40.881900  -0.001051   0.003133 -27.227400  -0.004705   0.008318 -28.605900   1.162260  -2.130490 -37.799200  -0.000761   0.002643 -25.174400  -0.004117   0.006443 -33.736900   0.522474  -0.783390 -50.610700  -0.001487   0.004579 -33.706700   0.000794   0.000175   7.655110  -3.190250   8.233150  29.860500  -6.252340  56.161900 -33.486800   3.251230  31.953100 -71.935200  26.609500  30.230500 -49.856400  38.973500  79.070300   7.913120  -0.000815  -0.005342  -1.043440  -0.000029  -0.002566  -9.571960   1.188090  -7.009440  -0.000000   0.000032   0.001294   0.000000   0.000000   0.000489  -5.195480   0.871838  -9.497300   0.000000  -0.001402   0.002550   0.000000  -0.001010   0.001657 -18.299000   3.019770  -9.050640  -0.000000   0.001958   0.004566  -0.000000   0.001379   0.002994   1.988960  -0.333838  -9.531310   3.025050   0.002086   0.000416   2.014680   0.001598   0.000116   3.471210  20.677000   3.947610   1.169590   0.041445   2.801760  -1.867580  -2.683030  -1.185900   0.000000   0.000000  -0.000000   4.314270  21.055300  -8.040770  -1.484550   2.613150 -14.218600   1.798950  -4.899580   0.244275   0.000000   0.000000  -0.000000
  2.169780  89.551600  -0.476751  -1.819090 -19.388800   7.079120  -0.279774  12.352400   5.688060  -1.915340  24.610800  11.867400   3.098950  -2.133670   0.115184   5.111950  -4.288880 -14.277100  -5.176460  -5.395230  -3.974060 -66.661200  21.155100 -11.661300  -1.126450  -5.880670 -16.925000  19.324500 -12.005900   5.963840  40.975100  32.016900 -62.143000 -27.978000  -0.000180   0.000000  -8.989000  -0.000116  -0.000291 -33.341900   7.719360 -11.539500 -27.918800  -0.002565  -0.003723 -19.543200   0.000905   0.000376 -28.746800   1.148900  -2.093320 -40.946700  -0.001049   0.003131 -27.270500  -0.004708   0.008395 -28.613700   1.143900  -2.096080 -37.906000  -0.000760   0.002641 -25.245400  -0.004118   0.006497 -33.835800   0.500989  -0.748360 -50.758600  -0.001487   0.004666 -33.805200   0.000756   0.000132   7.652260  -3.157250   8.212540  29.757700  -6.082640  56.085600 -33.522600   3.165940  31.871800 -71.667000  26.619100  29.997000 -49.792800  38.979300  79.115800   8.098640  -0.000548  -0.005484  -0.950687   0.000067  -0.002686  -9.310920   1.144490  -6.943270  -0.000000   0.000000   0.001306   0.000000   0.000000   0.000390  -4.878760   0.815497  -9.461800   0.000000  -0.001465   0.002515   0.000000  -0.001056   0.001644 -18.005000   2.960300  -9.027410  -0.000000   0.002093   0.004607  -0.000000   0.001481   0.003018   2.221450  -0.371091  -9.489450   3.378300   0.002111   0.000275   2.249940   0.001582   0.000000   3.496560  20.613400   3.949270   1.172470   0.080879   2.801760  -1.856460  -2.715450  -1.159600  -0.000000   0.000000   0.000000   4.333190  21.022600  -8.022080  -1.470090   2.581020 -14.199600   1.775180  -4.891690   0.244193   0.000000   0.000000   0.000000
  2.146330  89.551600  -0.464611  -1.856010 -19.323500   7.019240  -0.273086  12.304600   5.681540  -1.892670  24.516400  11.848400   3.100120  -2.118010   0.114671   5.112820  -4.257170 -14.298500  -5.185830  -5.361880  -3.983630 -66.740600  21.146200 -11.658200  -1.063120  -5.635030 -17.272200  19.356700 -12.001900   5.886520  41.041500  32.100200 -62.167300 -27.963700  -0.000216  -0.000021  -8.981850  -0.000136  -0.000281 -33.381600   7.705050 -11.497600 -27.948000  -0.002614  -0.003737 -19.563600   0.000904   0.000405 -28.749200   1.121780  -2.043710 -41.001700  -0.001050   0.003133 -27.307200  -0.004707   0.008472 -28.620500   1.117070  -2.046320 -37.997200  -0.000764   0.002645 -25.306100  -0.004119   0.006557 -33.920800   0.482501  -0.718207 -50.885700  -0.001489   0.004750 -33.889900   0.000717   0.000053   7.657200  -3.124310   8.189250  29.617800  -5.872080  55.989200 -33.584600   3.100500  31.837500 -71.170600  26.625500  29.609300 -49.555100  38.838200  78.958600   8.569690  -0.000247  -0.005558  -0.715167   0.000146  -0.002742  -9.094740   1.100860  -6.813000   0.041561   0.000000   0.001309   0.029088   0.000000   0.000331  -4.692040   0.779809  -9.405200   0.042180  -0.001517   0.002500   0.028097  -0.001118   0.001638 -17.631800   2.882220  -8.986140  -0.000000   0.002226   0.004655  -0.000000   0.001585   0.003036   2.537450  -0.420098  -9.425000   3.859230   0.002138   0.000205   2.570240   0.001570  -0.000056   3.523500  20.579100   3.958380   1.169850   0.041811   2.821210  -1.846280  -2.715600  -1.140170   0.000000   0.000000   0.000000   4.356170  20.982300  -8.004110  -1.456980   2.537490 -14.173500   1.748310  -4.875790   0.255162  -0.000000   0.000000  -0.000000
